<svg xmlns="http://www.w3.org/2000/svg" viewBox="0 0 1080 1080"><defs><style>.cls-1{fill:#a2c533;}.cls-2{fill:#1e2235;}</style></defs><g id="Layer_2" data-name="Layer 2"><path class="cls-1" d="M576.285,525.4c9.5,0,21.964-7.3,30.016-11.487a148.993,148.993,0,0,0,48.151-39.68c25.029-31.617,37.772-72.959,34.2-113.181-3.312-37.28-22.531-73.427-50.146-98.419-38.117-34.5-92.965-46.255-142.963-38.364C413,237.32,342.7,299.161,339.237,386.229c-1.625,40.739,11.437,79.09,42.635,107.345a159.885,159.885,0,0,0,39.508,25.867c1.231.579,2.462,1.17,3.669,1.785,4.272,2.179,18.049,8.68,40.21,14.491a269.889,269.889,0,0,0,59.194,8.458c25.424.862,79.41,4.1,125.086,16.313,0,0-38.24-26.285-73.512-31.776a1.661,1.661,0,1,1,.258-3.312Zm-62.174-9.849c-74.485-12.312-92.275-61.522-95.415-137.275C415,289.016,461.417,241,514.111,241S605.8,292.71,608.295,378.276C610.758,462.611,566.1,524.144,514.111,515.551Z"/><path class="cls-2" d="M348.52,476.153s26.588,78.795,140.1,84.335c0,0,98.052,1.389,172.61,20.314,66.747,16.942,135.749,89.541,100.707,160.769-17.417,35.4-49.081,62.2-83.469,80.54-39.884,21.271-107.939,38.338-193.293,35.7a368.55,368.55,0,0,1-38.513-2.937c-26.5-3.609-53.127-10.139-77.13-22.18-28.861-14.479-51.9-37.647-58.829-70.042-4.979-23.265-1.043-46.608,11.748-66.7,17.022-26.732,45.98-43.3,75.175-53.661a248.18,248.18,0,0,1,72.411-13.817c62.267-2.665,217.049-1.772,217.049,72.975,0,0-29.548-46.784-146.509-46.784,0,0-91.541-3.422-141.261,35.376-21.037,16.417-31.819,43.067-26.793,69.273,4.309,22.469,20.315,49.247,67.1,66.483,0,0,56.633,24.623,147.74,6.156S699.4,749.472,699.4,749.472s29.548-67.714-32.011-105.88c0,0-28.316-19.7-116.96-29.548L493.8,609.119s-65.252-4.925-99.724-36.935c-30.882-28.676-40.027-58.34-41.6-64.208-.251-.937-.5-1.862-.751-2.8C349.815,498.205,343.207,472.966,348.52,476.153Z"/></g></svg>