<svg xmlns="http://www.w3.org/2000/svg" viewBox="0 0 1920 1080"><defs><style>.cls-1{fill:#a2c533;}.cls-2{fill:#1e2235;}</style></defs><g id="Layer_2" data-name="Layer 2"><path class="cls-1" d="M480.246,530.446c6.245,0,14.431-4.8,19.721-7.547a97.886,97.886,0,0,0,31.636-26.07,106.188,106.188,0,0,0,22.471-74.362c-2.176-24.493-14.8-48.242-32.946-64.663-25.043-22.665-61.08-30.39-93.929-25.2-54.236,8.574-100.424,49.2-102.7,106.41-1.068,26.766,7.515,51.963,28.012,70.527a105.022,105.022,0,0,0,25.958,16.995c.808.38,1.617.769,2.41,1.173,2.807,1.432,11.858,5.7,26.418,9.521a177.379,177.379,0,0,0,38.892,5.557c16.7.566,52.174,2.693,82.184,10.718,0,0-25.125-17.27-48.3-20.878a1.091,1.091,0,1,1,.169-2.176ZM439.4,523.975c-48.938-8.089-60.626-40.42-62.689-90.192-2.427-58.644,28.069-90.191,62.689-90.191s60.239,33.973,61.881,90.191C502.9,489.193,473.557,529.621,439.4,523.975Z"/><path class="cls-2" d="M330.6,498.09s17.469,51.77,92.051,55.41c0,0,64.421.912,113.407,13.346,43.854,11.131,89.189,58.83,66.166,105.628-11.443,23.26-32.247,40.866-54.84,52.916-26.205,13.975-70.918,25.188-127,23.457a242.146,242.146,0,0,1-25.3-1.929c-17.41-2.372-34.906-6.662-50.676-14.573-18.962-9.513-34.1-24.734-38.652-46.019a57.867,57.867,0,0,1,7.72-43.82c11.183-17.563,30.209-28.449,49.39-35.256a163.052,163.052,0,0,1,47.576-9.078c40.91-1.751,142.6-1.164,142.6,47.946,0,0-19.414-30.738-96.258-30.738,0,0-60.144-2.248-92.811,23.243-13.822,10.785-20.905,28.295-17.6,45.513,2.831,14.762,13.346,32.356,44.084,43.68,0,0,37.209,16.178,97.068,4.045s73.609-54.2,73.609-54.2,19.413-44.489-21.031-69.565c0,0-18.605-12.942-76.845-19.413l-37.209-3.236s-42.872-3.236-65.521-24.267c-20.289-18.84-26.3-38.33-27.329-42.186-.165-.615-.325-1.223-.494-1.837C331.452,512.579,327.111,496,330.6,498.09Z"/><path class="cls-1" d="M686.522,336.716q-36.861,0-59.68,39.361V341.012H562.268v10.661l3.212.17q20.457,1.541,24.258,6.018t3.8,27.672v97.633q0,23.2-3.8,27.762t-24.258,5.929l-3.212.17V527.68H662.345V517.027l-7.264-.17q-20.288-1.2-24.259-5.849t-3.98-27.842V391.891q16.065-27.324,41.084-27.333c4.166,0,6.73,1.011,7.692,3.009s2.055,8.34,3.293,18.993l.17,3.1h18.766V338.609A39.49,39.49,0,0,0,686.522,336.716Z"/><path class="cls-1" d="M866.711,421.844q0-41-17.666-63.1t-50.459-22.107q-35.5,0-58.151,26.395t-22.657,67.68q0,43.485,25.278,70.721,25.262,27.252,65.674,27.244,26.2,0,57.981-12.514V499.094q-21.8,12.678-52.739,12.675-29.424,0-44.376-21.889t-14.965-64.833h112.08Zm-35.332-7.11H755.311q0-30.928,11.073-49.359t29.832-18.426q18.771,0,27.05,14.2t8.283,46.147Z"/><path class="cls-1" d="M1042.039,420.226q0-41-17.666-63.1t-50.459-22.107q-35.5,0-58.151,26.394-22.665,26.4-22.657,67.68,0,43.487,25.278,70.721,25.262,27.252,65.674,27.244,26.2,0,57.981-12.514V497.476q-21.816,12.679-52.748,12.675-29.411,0-44.368-21.889T929.959,423.43h112.08Zm-35.332-7.11H930.638q0-30.927,11.074-49.358t29.832-18.427q18.771,0,27.049,14.2t8.283,46.148Z"/><path class="cls-1" d="M1267.567,510.564q-21.635-1.518-24.34-4.732t-3.891-28.4V391.794q0-27.252-13.355-42.823Q1212.465,333.4,1188.8,333.4a72.283,72.283,0,0,0-37.023,9.642q-16.575,9.647-29.242,28.918V337.63H1057.95v10.475l3.211.17q20.457,1.53,24.259,5.921t3.81,27.212v96.023q0,22.824-3.81,27.3t-24.259,5.833l-3.211.17v10.475H1153.8V510.734l-3.2-.17q-20.688-1.347-24.38-5.752t-3.7-27.381v-94.3q16.392-14.221,30.253-21.234t25.019-7.029q15.894,0,22.066,9.229t6.164,32.922v80.412q-1.178,25.19-3.883,28.4t-24.347,4.732l-3.042.17v10.475h95.854V510.734Z"/><path class="cls-2" d="M1412.5,514.739q-26.372,10.479-51.559,10.481-40.234,0-65.252-26.9t-25.019-70.046q0-43.146,24.089-69.116t64.153-25.972q20.452,0,53.588,8.283V385.25H1391.7l-.169-3.043q0-37.865-33.3-37.866-24.177,0-38.458,22t-14.284,59.565q0,38.417,16.9,60.582t45.981,22.167q25.015,0,44.121-8.453Z"/><path class="cls-2" d="M1525.984,523.012q-40.571,0-64.068-25.8t-23.5-70.3q0-44.5,23.5-70.214t64.068-25.719q40.737,0,64.153,25.719t23.413,70.214q0,44.5-23.5,70.3T1525.984,523.012ZM1525.9,512.7q22.519,0,37.42-24.305t14.9-61.4q0-36.752-14.9-61.229t-37.42-24.477q-22.353,0-37.251,24.477t-14.9,61.229q0,37.1,14.815,61.4T1525.9,512.7Z"/><path class="cls-2" d="M666.729,638.522V652q0,5.738.916,6.832t6.038,1.433l.791.043v3.941H647.638v-3.941l.795-.043q4.228-.294,5.066-1.454t.837-6.811V613.77q0-5.65-.816-6.789t-5.087-1.476l-.795-.042v-3.942h19.091l8-.212,3.517-.085q18.3,0,18.3,16.6,0,10.329-6.49,15.515t-19.468,5.186Zm0-4.153h2.47q7.117,0,10.676-3.9t3.559-11.655q0-13.139-12.184-13.139h-4.521Z"/><path class="cls-2" d="M732.339,636.269v15.072q0,5.541.733,6.748t4.207,1.416l.754.042v3.893H713.248v-3.893l.795-.042q4.228-.291,5.066-1.437t.838-6.727V613.577q0-5.58-.817-6.705t-5.087-1.459l-.795-.041v-3.894h18.045l7.661-.209,3.81-.084q19.174,0,19.175,15.679a17.637,17.637,0,0,1-11.926,17.685l12.1,16.874q4.481,6.03,5.673,6.952t4.71,1.13l.8.042v3.893H754.822l-17.166-27.171Zm0-4.1h2.3q6.573,0,10.425-3.893t3.851-10.635q0-12.057-11.89-12.057h-4.689Z"/><path class="cls-2" d="M819.233,663.372q-14.611,0-23.027-8.729t-8.415-23.8q0-15.113,8.415-23.822t23.027-8.708q14.57,0,22.985,8.708t8.415,23.822q0,15.072-8.415,23.8T819.233,663.372Zm.021-4.1q8.886,0,13.308-7.144t4.422-21.43q0-14.162-4.422-21.221t-13.308-7.06q-8.846,0-13.288,7.06T801.523,630.7q0,14.288,4.443,21.43T819.254,659.269Z"/><path class="cls-2" d="M886.965,636.41v13.313q0,5.667.916,6.749t6.039,1.415l.79.042v3.894H867.874v-3.894l.795-.042q4.229-.289,5.066-1.437t.837-6.727V611.96q0-5.582-.816-6.706t-5.087-1.458l-.795-.042V599.86h19.091l8-.209,3.517-.084q18.3,0,18.3,16.394,0,10.2-6.489,15.326t-19.468,5.123Zm0-4.1h2.47q7.118,0,10.676-3.852t3.559-11.513q0-12.978-12.183-12.979h-4.522Z"/><path class="cls-2" d="M980.752,661.014H933.484V657.12l.8-.042q4.229-.289,5.066-1.437t.837-6.727V611.151q0-5.582-.817-6.706t-5.086-1.458l-.8-.042v-3.894h45.467v11.095h-6.2l-.084-.8q-.125-2.135-.125-2.512,0-2.344-1.11-3.014t-5-.67H953.12v23.529h8.624a32.634,32.634,0,0,0,5.715-.249q.732-.249.816-3.861l.084-.788h4.4v13.4h-4.4l-.084-.753q-.086-3.307-1.181-3.727a20.014,20.014,0,0,0-5.35-.418h-8.876v18.588q0,6.95,1.638,7.411a36.907,36.907,0,0,0,6.678.335h5.207q6.248,0,7.019-.607t1.1-5.841l.042-.795h6.2Z"/><path class="cls-2" d="M1017.055,633.842v15.072q0,5.541.733,6.749t4.208,1.415l.753.042v3.894H997.964V657.12l.8-.042q4.228-.289,5.066-1.437t.837-6.727V611.151q0-5.582-.817-6.706t-5.086-1.458l-.8-.042v-3.894h18.045l7.661-.209,3.81-.084q19.174,0,19.175,15.679a17.637,17.637,0,0,1-11.926,17.685l12.1,16.874q4.479,6.03,5.673,6.952t4.71,1.13l.795.042v3.894h-18.466l-17.166-27.172Zm0-4.1h2.3q6.573,0,10.425-3.893t3.852-10.634q0-12.058-11.891-12.058h-4.689Z"/><path class="cls-2" d="M1094.166,602.345h-10.09q-3.894,0-5,1.068t-1.151,6.552l-.041,1.172h-6.2V598.242h57.9v12.895h-6.2l-.042-1.172q-.043-5.486-1.152-6.552t-5-1.068H1107.1v45.719q.294,6.239.963,7.033t6.029,1.172l.754.042v3.894H1086.42v-3.894l.754-.042q5.108-.333,6.049-1.436t.943-6.728Z"/><path class="cls-2" d="M1167.424,631.793,1153.357,609.1q-2.637-4.207-2.972-4.833a9.3,9.3,0,0,0-2.114-3.063,14.508,14.508,0,0,0-4.25-.645l-.837-.042v-3.893h26.878v3.893h-.67q-4.857,0-4.94,1.34t3.565,7.285l10.527,17.274,10.8-17.26q3.558-5.718,3.558-7.053,0-1.586-4.061-1.586h-.921v-3.893h17.018v3.893l-.754.042q-3.726.293-4.208.75t-5.212,7.791l-14.4,22.608v14.779q0,5.58.837,6.727t5.108,1.437l.754.042v3.893h-26.334v-3.893l.79-.042q4.244-.291,5.076-1.437t.832-6.727Z"/><path class="cls-2" d="M1313.076,657.331a102.753,102.753,0,0,1-21.143,2.8q-14.738,0-23.382-8.792t-8.646-23.78q0-15.574,8.562-24.031t24.3-8.457a81.06,81.06,0,0,1,20.264,2.721v12.225h-6.2v-.754q0-5.149-1.381-6.447-4.02-3.642-12.811-3.643-9.5,0-14.256,7.1t-4.752,21.289q0,14.193,5.079,21.289t15.236,7.1a19.662,19.662,0,0,0,6.187-1.049V643.39q0-5.553-.838-6.693t-5.107-1.43l-.754-.083V631.29h26.334v3.894l-.79.083q-4.2.249-5.055,1.409t-.853,6.714Z"/><path class="cls-2" d="M1354.181,630.607v15.072q0,5.541.732,6.748t4.208,1.416l.753.042v3.893h-24.785v-3.893l.8-.042q4.227-.291,5.066-1.437t.837-6.727V607.915q0-5.58-.816-6.706t-5.087-1.458l-.8-.042v-3.893h18.045l7.662-.21,3.809-.083q19.174,0,19.175,15.678a17.632,17.632,0,0,1-11.926,17.685l12.1,16.875q4.481,6.03,5.673,6.951t4.71,1.131l.795.042v3.893h-18.466L1359.5,630.607Zm0-4.1h2.3q6.573,0,10.425-3.894t3.852-10.634q0-12.057-11.89-12.057h-4.689Z"/><path class="cls-2" d="M1441.883,658.518q-14.611,0-23.026-8.728t-8.416-23.8q0-15.114,8.416-23.822t23.026-8.708q14.569,0,22.985,8.708t8.415,23.822q0,15.072-8.415,23.8T1441.883,658.518Zm.021-4.1q8.886,0,13.309-7.143t4.422-21.43q0-14.162-4.422-21.222t-13.309-7.059q-8.844,0-13.287,7.059t-4.443,21.222q0,14.286,4.443,21.43T1441.9,654.415Z"/><path class="cls-2" d="M1489.519,594.2h26.334v3.894l-.758.041q-4.3.333-5.119,1.459t-.821,6.705v26.795q0,11.155,3.149,15.835t10.668,4.68q8.005,0,11.643-4.952t3.637-15.9V606.3q0-5.58-.816-6.705t-5.129-1.459l-.754-.041V594.2h19.468v3.894l-.753.041q-4.23.333-5.024,1.459t-.8,6.705v25.455q0,13.356-5.628,19.636-5.628,6.321-17.542,6.321-25.061,0-25.06-25.119v-26q0-5.61-.837-6.782t-5.066-1.423l-.8-.084Z"/><path class="cls-2" d="M1585.805,630.747v13.314q0,5.665.915,6.748t6.039,1.416l.791.042v3.893h-26.837v-3.893l.8-.042q4.227-.291,5.066-1.437t.837-6.727V606.3q0-5.58-.816-6.705t-5.087-1.459l-.8-.041V594.2h19.092l8-.209,3.517-.084q18.294,0,18.3,16.393,0,10.2-6.49,15.327t-19.468,5.122Zm0-4.1h2.47q7.116,0,10.676-3.851t3.558-11.514q0-12.978-12.183-12.978h-4.521Z"/></g></svg>